<svg xmlns="http://www.w3.org/2000/svg" viewBox="0 0 113.38 75.55">
  <defs>
    <style>
      .a {
        opacity: 0.7;
        fill: #022321;
      }

      .a, .b {
        font-size: 37px;
        font-family: Karton;
        letter-spacing: -2px;
      }

      .b, .e {
        fill: #03a9f4;
      }

      .c {
        fill: #201600;
      }

      .d {
        fill: #063444;
      }
    </style>
  </defs>
  <title>logo</title>
  <g>
    <text class="a" transform="translate(85.99 34.61)">ще</text>
    <text class="b" transform="translate(85.65 34.23)">ще</text>
    <g>
      <path class="c" d="M112.35,224.24c4.8-.24,10.27,0,15.07,0v3.6h-10.8c-0.24,3.22.43,13.06,0.58,14.4h9v3.6l-9,1.2v0.58c0,1.87.43,4.75,0.48,6.63h9.74v3.6H113Z" transform="translate(-112.35 -223.61)"/>
      <path class="c" d="M129.1,225l3.84-1.2L136,249.63l2-13.06c1-6.53,2-13,2.21-13s1.34,0.24,2.64.43c0.72,0.14,1.54.24,2.45,0.34L139,257.94l-7,.19Z" transform="translate(-112.35 -223.61)"/>
      <path class="c" d="M147.43,224.24c4.8-.24,10.27,0,15.07,0v3.6h-10.8c-0.24,3.22.43,13.06,0.58,14.4h9v3.6l-9,1.2v0.58c0,1.87.43,4.75,0.48,6.63h9.74v3.6h-14.4Z" transform="translate(-112.35 -223.61)"/>
      <path class="c" d="M165.24,257.84l-0.43-33.55,4.51,0.19,6.63,21.94,0.48-22.8,4.7,0.58-0.67,34-4.9-.19-6.14-20,0.72,19.92Z" transform="translate(-112.35 -223.61)"/>
    </g>
    <path class="c" d="M200.24,227.79c0-.58-0.1-1.44-0.14-2.16l-0.1-1.3L183.24,224c-0.14.91-.1,4.08-0.1,4.94h5.9v28.9h1.4c0-.5-0.07-1.13-0.07-1.89v-0.94a74.77,74.77,0,0,1,1.16-11.88l0.23-.15h0.08a0.14,0.14,0,0,1,.15.15l-0.46,10.09v2.25q0,0.79-.08,1.94a2,2,0,0,1,.06.43h2.22c0-9.55-.58-19.44-0.58-29.47h7.06v-0.62Zm-8.46,13.06h-0.46a1.94,1.94,0,0,1-.48-1.48A2.91,2.91,0,0,1,192,236.9h0.25q0.85,0,.85,1.87Q193.11,240.85,191.78,240.85Z" transform="translate(-112.35 -223.61)"/>
  </g>
  <g>
    <g>
      <polygon class="d" points="24.74 7.04 19.03 3.74 19.03 10.34 24.74 7.04"/>
      <polygon class="d" points="23.67 7.04 29.39 3.74 29.39 10.34 23.67 7.04"/>
    </g>
    <g>
      <polygon class="e" points="24.49 6.54 18.78 3.24 18.78 9.84 24.49 6.54"/>
      <polygon class="e" points="23.42 6.54 29.14 3.24 29.14 9.84 23.42 6.54"/>
    </g>
  </g>
</svg>
