<svg xmlns="http://www.w3.org/2000/svg" viewBox="0 0 115.1 42.25">
  <defs>
    <style>
      .a {
        fill: #03a9f4;
      }

      .b {
        fill: #fff;
      }
    </style>
  </defs>
  <title>logo_white_2</title>
  <path class="a" d="M214.31,237.53q0.49,0,.49,3.83v3q0,6.12-.39,11.73,4.58,0.54,4.58,1.26l0.1,0.39a32.06,32.06,0,0,1-3.71,7.61l-0.68.5h-0.19a0.75,0.75,0,0,1-.8-0.89q0-.87,3-6.74l-0.19-.1h-0.49a1.15,1.15,0,0,1-.87.89q-1.26,0-8.7-.8a56.73,56.73,0,0,1-6.53-1,1,1,0,0,1-.8.49q-0.8,0-1.17-1.55l0.19-.68q0.52-16.92,1.17-17h0.41q0.49,0,.49,3v2a13.22,13.22,0,0,1-.1,1.67,6.24,6.24,0,0,1,.1,1.17q0,0.6-.1,3.22l0.1,0.58a17,17,0,0,0-.1,1.77v3.81q4.2,0.39,5.75.39v-0.1q0-3.67,1.09-17.48a0.83,0.83,0,0,1,.39-0.39h0.19q0.58,0,.58,3.9,0,4.31-.1,14a0.09,0.09,0,0,0-.1.1l0.19,0.1a39.59,39.59,0,0,1,4,.29A1.18,1.18,0,0,1,212,256v-0.1q0-.29.58-0.29,1.18-18.08,1.57-18.08h0.19Z" transform="translate(-112.35 -223.61)"/>
  <path class="a" d="M221,237.66h0.1q2.85,0,3.55,3.28a1.51,1.51,0,0,1,.12.91v0.62q0,3-3.24,6a4.78,4.78,0,0,1-2.56,1.09h-1.18q0,4.41,2.47,5.92a4,4,0,0,0,1.51.37q2.1,0,4.72-3.19a0.7,0.7,0,0,1,.76-0.47,0.21,0.21,0,0,1,.21.19q0,1.71-2.68,3.9a5.22,5.22,0,0,1-2.8.91h-0.66q-3.9,0-5.15-5.55-0.12-1.51-.12-2.27v-0.54q0-6.56,3.13-10.47A3.21,3.21,0,0,1,221,237.66Zm-3.22,11.48h0.52q2.58,0,4.53-4.2a7.72,7.72,0,0,0,.54-2.82q0-2.64-2.16-3H221.1Q218.65,239.62,217.78,249.14Z" transform="translate(-112.35 -223.61)"/>
  <path class="b" d="M112.35,224.24c4.8-.24,10.27,0,15.07,0v3.6h-10.8c-0.24,3.22.43,13.06,0.58,14.4h9v3.6l-9,1.2v0.58c0,1.87.43,4.75,0.48,6.63h9.74v3.6H113Z" transform="translate(-112.35 -223.61)"/>
  <path class="b" d="M129.1,225l3.84-1.2L136,249.63l2-13.06c1-6.53,2-13,2.21-13s1.34,0.24,2.64.43c0.72,0.14,1.54.24,2.45,0.34L139,257.94l-7,.19Z" transform="translate(-112.35 -223.61)"/>
  <path class="b" d="M147.43,224.24c4.8-.24,10.27,0,15.07,0v3.6h-10.8c-0.24,3.22.43,13.06,0.58,14.4h9v3.6l-9,1.2v0.58c0,1.87.43,4.75,0.48,6.63h9.74v3.6h-14.4Z" transform="translate(-112.35 -223.61)"/>
  <path class="b" d="M165.24,257.84l-0.43-33.55,4.51,0.19,6.63,21.94,0.48-22.8,4.7,0.58-0.67,34-4.9-.19-6.14-20,0.72,19.92Z" transform="translate(-112.35 -223.61)"/>
  <path class="b" d="M200.24,227.79c0-.58-0.1-1.44-0.14-2.16l-0.1-1.3L183.24,224c-0.14.91-.1,4.08-0.1,4.94h5.9v28.9h1.4c0-.5-0.07-1.13-0.07-1.89v-0.94a74.77,74.77,0,0,1,1.16-11.88l0.23-.15h0.08a0.14,0.14,0,0,1,.15.15l-0.46,10.09v2.25q0,0.79-.08,1.94a2,2,0,0,1,.06.43h2.22c0-9.55-.58-19.44-0.58-29.47h7.06v-0.62Zm-8.46,13.06h-0.46a1.94,1.94,0,0,1-.48-1.48A2.91,2.91,0,0,1,192,236.9h0.25q0.85,0,.85,1.87Q193.11,240.85,191.78,240.85Z" transform="translate(-112.35 -223.61)"/>
  <polygon class="a" points="24.49 6.54 18.78 3.24 18.78 9.84 24.49 6.54"/>
  <polygon class="a" points="23.42 6.54 29.14 3.24 29.14 9.84 23.42 6.54"/>
</svg>
