<svg xmlns="http://www.w3.org/2000/svg" viewBox="0 0 113.38 42.63">
  <defs>
    <style>
      .a {
        opacity: 0.7;
      }

      .b {
        fill: #022321;
      }

      .c {
        fill: #03a9f4;
      }

      .d {
        fill: #fff;
      }

      .e {
        fill: #063444;
      }
    </style>
  </defs>
  <title>logo_white</title>
  <g class="a">
    <path class="b" d="M213.51,239.89q0.45,0,.45,3.56v2.8q0,5.69-.36,10.91,4.26,0.51,4.26,1.17l0.09,0.36a29.82,29.82,0,0,1-3.45,7.08l-0.63.47h-0.18a0.7,0.7,0,0,1-.74-0.83q0-.81,2.82-6.27l-0.18-.09h-0.45a1.07,1.07,0,0,1-.81.83q-1.17,0-8.09-.74a52.77,52.77,0,0,1-6.07-.9,0.94,0.94,0,0,1-.74.45q-0.74,0-1.08-1.45l0.18-.63q0.49-15.74,1.08-15.81H200q0.45,0,.45,2.82v1.9a12.3,12.3,0,0,1-.09,1.55,5.81,5.81,0,0,1,.09,1.08q0,0.56-.09,3l0.09,0.54a15.81,15.81,0,0,0-.09,1.64v3.54q3.9,0.36,5.35.36v-0.09q0-3.41,1-16.26a0.77,0.77,0,0,1,.36-0.36h0.18q0.54,0,.54,3.63,0,4-.09,13a0.08,0.08,0,0,0-.09.09l0.18,0.09a36.82,36.82,0,0,1,3.72.27,1.1,1.1,0,0,1-.18-0.54V257q0-.27.54-0.27,1.1-16.82,1.46-16.82h0.18Z" transform="translate(-112.35 -223.61)"/>
    <path class="b" d="M219.73,240h0.09q2.66,0,3.31,3.05a1.41,1.41,0,0,1,.11.85v0.58q0,2.84-3,5.6a4.44,4.44,0,0,1-2.38,1h-1.1q0,4.1,2.29,5.51a3.72,3.72,0,0,0,1.41.34q2,0,4.39-3a0.65,0.65,0,0,1,.7-0.43,0.19,0.19,0,0,1,.2.18q0,1.59-2.49,3.63a4.85,4.85,0,0,1-2.6.85H220q-3.63,0-4.79-5.17-0.11-1.41-.11-2.11v-0.51q0-6.11,2.91-9.74A3,3,0,0,1,219.73,240Zm-3,10.68h0.49q2.4,0,4.21-3.9a7.18,7.18,0,0,0,.51-2.62q0-2.46-2-2.8h-0.11Q217.54,241.84,216.73,250.69Z" transform="translate(-112.35 -223.61)"/>
  </g>
  <path class="c" d="M213.18,239.5q0.45,0,.45,3.56v2.8q0,5.69-.36,10.91,4.26,0.51,4.26,1.17l0.09,0.36a29.82,29.82,0,0,1-3.45,7.08l-0.63.47h-0.18a0.7,0.7,0,0,1-.74-0.83q0-.81,2.82-6.27l-0.18-.09H214.8a1.07,1.07,0,0,1-.81.83q-1.17,0-8.09-.74a52.77,52.77,0,0,1-6.07-.9,0.94,0.94,0,0,1-.74.45q-0.74,0-1.08-1.45l0.18-.63q0.49-15.74,1.08-15.81h0.38q0.45,0,.45,2.82v1.9a12.3,12.3,0,0,1-.09,1.55,5.81,5.81,0,0,1,.09,1.08q0,0.56-.09,3l0.09,0.54A15.81,15.81,0,0,0,200,253v3.54q3.9,0.36,5.35.36v-0.09q0-3.41,1-16.26a0.77,0.77,0,0,1,.36-0.36h0.18q0.54,0,.54,3.63,0,4-.09,13a0.08,0.08,0,0,0-.09.09l0.18,0.09a36.82,36.82,0,0,1,3.72.27,1.1,1.1,0,0,1-.18-0.54v-0.09q0-.27.54-0.27,1.1-16.82,1.46-16.82h0.18Z" transform="translate(-112.35 -223.61)"/>
  <path class="c" d="M219.4,239.63h0.09q2.66,0,3.31,3.05a1.41,1.41,0,0,1,.11.85v0.58q0,2.84-3,5.6a4.44,4.44,0,0,1-2.38,1h-1.1q0,4.1,2.29,5.51a3.72,3.72,0,0,0,1.41.34q2,0,4.39-3a0.65,0.65,0,0,1,.7-0.43,0.19,0.19,0,0,1,.2.18q0,1.59-2.49,3.63a4.85,4.85,0,0,1-2.6.85h-0.61q-3.63,0-4.79-5.17-0.11-1.41-.11-2.11v-0.51q0-6.11,2.91-9.74A3,3,0,0,1,219.4,239.63Zm-3,10.68h0.49q2.4,0,4.21-3.9a7.18,7.18,0,0,0,.51-2.62q0-2.46-2-2.8h-0.11Q217.21,241.45,216.4,250.31Z" transform="translate(-112.35 -223.61)"/>
  <path class="d" d="M112.35,224.24c4.8-.24,10.27,0,15.07,0v3.6h-10.8c-0.24,3.22.43,13.06,0.58,14.4h9v3.6l-9,1.2v0.58c0,1.87.43,4.75,0.48,6.63h9.74v3.6H113Z" transform="translate(-112.35 -223.61)"/>
  <path class="d" d="M129.1,225l3.84-1.2L136,249.63l2-13.06c1-6.53,2-13,2.21-13s1.34,0.24,2.64.43c0.72,0.14,1.54.24,2.45,0.34L139,257.94l-7,.19Z" transform="translate(-112.35 -223.61)"/>
  <path class="d" d="M147.43,224.24c4.8-.24,10.27,0,15.07,0v3.6h-10.8c-0.24,3.22.43,13.06,0.58,14.4h9v3.6l-9,1.2v0.58c0,1.87.43,4.75,0.48,6.63h9.74v3.6h-14.4Z" transform="translate(-112.35 -223.61)"/>
  <path class="d" d="M165.24,257.84l-0.43-33.55,4.51,0.19,6.63,21.94,0.48-22.8,4.7,0.58-0.67,34-4.9-.19-6.14-20,0.72,19.92Z" transform="translate(-112.35 -223.61)"/>
  <path class="d" d="M200.24,227.79c0-.58-0.1-1.44-0.14-2.16l-0.1-1.3L183.24,224c-0.14.91-.1,4.08-0.1,4.94h5.9v28.9h1.4c0-.5-0.07-1.13-0.07-1.89v-0.94a74.77,74.77,0,0,1,1.16-11.88l0.23-.15h0.08a0.14,0.14,0,0,1,.15.15l-0.46,10.09v2.25q0,0.79-.08,1.94a2,2,0,0,1,.06.43h2.22c0-9.55-.58-19.44-0.58-29.47h7.06v-0.62Zm-8.46,13.06h-0.46a1.94,1.94,0,0,1-.48-1.48A2.91,2.91,0,0,1,192,236.9h0.25q0.85,0,.85,1.87Q193.11,240.85,191.78,240.85Z" transform="translate(-112.35 -223.61)"/>
  <polygon class="e" points="24.74 7.04 19.03 3.74 19.03 10.34 24.74 7.04"/>
  <polygon class="e" points="23.67 7.04 29.39 3.74 29.39 10.34 23.67 7.04"/>
  <polygon class="c" points="24.49 6.54 18.78 3.24 18.78 9.84 24.49 6.54"/>
  <polygon class="c" points="23.42 6.54 29.14 3.24 29.14 9.84 23.42 6.54"/>
</svg>
